<svg width="96" height="96" xmlns="http://www.w3.org/2000/svg" xmlns:xlink="http://www.w3.org/1999/xlink" xml:space="preserve" overflow="hidden"><defs><clipPath id="clip0"><rect x="1261" y="244" width="96" height="96"/></clipPath></defs><g clip-path="url(#clip0)" transform="translate(-1261 -244)"><path d="M1350.07 301.969C1347.86 301.977 1345.92 303.431 1345.3 305.545L1321.01 303.402C1320.73 300.687 1318.3 298.714 1315.59 298.995 1315 299.056 1314.44 299.218 1313.92 299.475L1306.45 289.624C1308.48 287.769 1308.63 284.62 1306.77 282.59 1305.15 280.819 1302.5 280.453 1300.47 281.72L1295.2 274.773C1296.76 272.498 1296.17 269.393 1293.9 267.839 1291.62 266.285 1288.52 266.869 1286.96 269.144 1286.83 269.336 1286.72 269.537 1286.61 269.745L1272.98 269.064C1272.47 266.349 1269.87 264.556 1267.15 265.057 1264.44 265.559 1262.64 268.165 1263.15 270.879 1263.65 273.594 1266.25 275.387 1268.97 274.886 1270.94 274.522 1272.5 273.018 1272.94 271.064L1286.09 271.721C1286.09 271.805 1286.07 271.884 1286.07 271.969 1286.06 274.721 1288.28 276.96 1291.03 276.969 1292 276.972 1292.94 276.695 1293.75 276.172L1298.99 283.089C1297.38 285.308 1297.88 288.413 1300.1 290.023 1301.44 290.996 1303.18 291.236 1304.73 290.662L1312.33 300.687C1310.5 302.734 1310.68 305.874 1312.73 307.698 1313.41 308.302 1314.24 308.709 1315.13 308.874L1315.72 317.176C1313.07 317.914 1311.52 320.664 1312.25 323.318 1312.99 325.972 1315.74 327.525 1318.4 326.787 1319.81 326.394 1320.97 325.402 1321.59 324.073L1335.28 327.334C1336.02 329.986 1338.78 331.533 1341.43 330.789 1344.08 330.046 1345.63 327.294 1344.88 324.643 1344.52 323.342 1343.64 322.245 1342.45 321.603L1348.41 311.667C1348.94 311.861 1349.5 311.963 1350.07 311.969 1352.83 311.969 1355.07 309.731 1355.07 306.969 1355.07 304.208 1352.83 301.969 1350.07 301.969ZM1268.07 272.969C1266.41 272.969 1265.07 271.626 1265.07 269.969 1265.07 268.312 1266.41 266.969 1268.07 266.969 1269.72 266.969 1271.07 268.312 1271.07 269.969 1271.06 271.625 1269.72 272.967 1268.07 272.969ZM1288.07 271.969C1288.07 270.312 1289.41 268.969 1291.07 268.969 1292.72 268.969 1294.07 270.312 1294.07 271.969 1294.07 273.626 1292.72 274.969 1291.07 274.969 1289.41 274.967 1288.07 273.625 1288.07 271.969ZM1300.07 285.969C1300.07 284.312 1301.41 282.969 1303.07 282.969 1304.72 282.969 1306.07 284.312 1306.07 285.969 1306.07 287.626 1304.72 288.969 1303.07 288.969 1301.41 288.967 1300.07 287.625 1300.07 285.969ZM1313.07 303.969C1313.07 302.312 1314.41 300.969 1316.07 300.969 1317.72 300.969 1319.07 302.312 1319.07 303.969 1319.07 305.626 1317.72 306.969 1316.07 306.969 1314.41 306.967 1313.07 305.625 1313.07 303.969ZM1317.07 324.969C1315.41 324.969 1314.07 323.626 1314.07 321.969 1314.07 320.312 1315.41 318.969 1317.07 318.969 1318.72 318.969 1320.07 320.312 1320.07 321.969 1320.06 323.625 1318.72 324.967 1317.07 324.969ZM1340.07 328.969C1338.41 328.969 1337.07 327.626 1337.07 325.969 1337.07 324.312 1338.41 322.969 1340.07 322.969 1341.72 322.969 1343.07 324.312 1343.07 325.969 1343.06 327.625 1341.72 328.967 1340.07 328.969ZM1340.48 321.011C1340.34 320.999 1340.21 320.969 1340.07 320.969 1337.59 320.976 1335.5 322.795 1335.14 325.244L1322.05 322.128C1322.05 322.074 1322.07 322.024 1322.07 321.969 1322.06 319.466 1320.2 317.357 1317.72 317.035L1317.13 308.849C1318.9 308.455 1320.32 307.132 1320.83 305.394L1345.12 307.537C1345.26 308.727 1345.82 309.829 1346.7 310.64ZM1350.07 309.969C1348.41 309.969 1347.07 308.626 1347.07 306.969 1347.07 305.312 1348.41 303.969 1350.07 303.969 1351.72 303.969 1353.07 305.312 1353.07 306.969 1353.06 308.625 1351.72 309.967 1350.07 309.969Z" fill="#FFFFFF"/><path d="M1344.07 284.317C1345.31 279.865 1348.41 276.16 1352.57 274.143 1348.4 272.133 1345.3 268.426 1344.07 263.969 1342.82 268.422 1339.73 272.126 1335.57 274.143 1339.73 276.16 1342.82 279.865 1344.07 284.317ZM1344.06 268.908C1345.24 270.939 1346.8 272.719 1348.67 274.146 1346.81 275.575 1345.24 277.353 1344.07 279.382 1342.89 277.352 1341.33 275.572 1339.46 274.143 1341.32 272.715 1342.89 270.937 1344.06 268.908Z" fill="#FFFFFF"/><path d="M1278.92 306.969C1278.06 310.033 1275.93 312.581 1273.07 313.969 1275.93 315.357 1278.06 317.906 1278.92 320.969 1279.77 317.906 1281.9 315.357 1284.76 313.969 1281.9 312.586 1279.77 310.036 1278.92 306.969ZM1278.92 316.414C1278.3 315.51 1277.56 314.689 1276.74 313.969 1277.56 313.251 1278.29 312.43 1278.91 311.528 1279.53 312.432 1280.26 313.253 1281.09 313.972 1280.26 314.691 1279.53 315.511 1278.92 316.414Z" fill="#FFFFFF"/><path d="M1327.07 262.433C1327.59 260.552 1328.9 258.988 1330.66 258.135 1328.9 257.286 1327.59 255.72 1327.07 253.838 1326.54 255.719 1325.23 257.283 1323.48 258.135 1325.23 258.988 1326.54 260.552 1327.07 262.433Z" fill="#FFFFFF"/></g></svg>