<svg width="69" height="69" xmlns="http://www.w3.org/2000/svg" xmlns:xlink="http://www.w3.org/1999/xlink" xml:space="preserve" overflow="hidden"><defs><clipPath id="clip0"><rect x="839" y="197" width="69" height="69"/></clipPath></defs><g clip-path="url(#clip0)" transform="translate(-839 -197)"><path d="M888.902 217.844C888.924 217.511 888.957 217.103 888.957 216.766 888.957 208.231 882.038 201.312 873.503 201.312 864.969 201.312 858.05 208.231 858.05 216.766 858.05 217.264 858.079 217.767 858.126 218.253L858.126 218.253C858.419 221.317 859.625 224.223 861.587 226.594 859.58 227.111 858.372 229.157 858.889 231.164 859.019 231.666 859.251 232.136 859.571 232.545 857.061 233.587 854.668 234.895 852.435 236.446 850.844 237.658 849.794 239.447 849.512 241.427L848.302 256.546 848.862 256.712C848.958 256.74 858.594 259.532 873.495 259.532 888.396 259.532 898.048 256.74 898.143 256.712L898.703 256.547 897.498 241.358C897.163 239.425 896.131 237.681 894.598 236.457 892.436 234.792 890.042 233.453 887.491 232.482 888.733 230.819 888.392 228.464 886.73 227.222 886.338 226.929 885.893 226.716 885.419 226.594 887.467 224.113 888.685 221.053 888.902 217.844ZM894.777 238.671 891.516 241.467 889.645 239.284 892.587 236.763C892.974 237.03 893.351 237.302 893.706 237.584 894.105 237.903 894.465 238.267 894.777 238.671ZM859.565 218.225C859.6 217.068 860.008 215.952 860.729 215.046 860.459 218.255 861.228 222.471 863.4 224.451 864.032 226.154 865.083 227.671 866.456 228.86 862.597 226.614 860.038 222.665 859.565 218.225ZM884.503 213.047C885.082 215.488 885.006 218.039 884.283 220.441L884.284 220C884.284 217.762 882.246 216.233 880.448 214.883 879.161 213.917 877.83 212.918 877.83 212.018 877.831 211.621 877.509 211.299 877.112 211.299 876.869 211.299 876.643 211.421 876.51 211.624 874.661 214.445 871.475 215.235 868.664 215.932 865.649 216.679 862.805 217.393 862.729 220.533 862 218.187 861.92 215.686 862.495 213.298 865.092 211.288 869.134 209.938 873.503 209.938 877.917 209.938 881.921 211.172 884.503 213.047ZM882.845 220.717C882.845 221.694 882.69 222.665 882.388 223.594L878.456 223.594C878.201 223.152 877.731 222.878 877.22 222.875L875.783 222.875C874.989 222.875 874.345 223.519 874.345 224.312 874.345 225.106 874.989 225.75 875.783 225.75L877.22 225.75C877.731 225.747 878.201 225.473 878.456 225.031L881.782 225.031C879.403 229.607 873.765 231.389 869.189 229.01 866.093 227.401 864.153 224.2 864.158 220.711 864.135 218.633 865.806 218.122 869.01 217.327 871.57 216.692 874.68 215.921 876.862 213.513 877.622 214.499 878.543 215.351 879.585 216.033 881.188 217.236 882.847 218.481 882.847 219.999ZM883.603 224.452C885.956 222.315 886.558 217.845 886.257 214.685 886.994 215.549 887.42 216.636 887.468 217.771 887.133 222.387 884.54 226.54 880.539 228.868 881.916 227.677 882.97 226.158 883.603 224.452ZM873.503 202.75C879.968 202.761 885.588 207.189 887.112 213.472 884.52 210.518 879.396 208.5 873.503 208.5 867.592 208.5 862.335 210.747 859.775 213.938 861.125 207.429 866.855 202.759 873.503 202.75ZM860.538 229.037C860.854 228.506 861.37 228.124 861.969 227.976 862.155 227.93 862.346 227.906 862.538 227.906 862.64 227.906 862.743 227.913 862.845 227.927 868.797 233.649 878.205 233.65 884.159 227.93 885.432 227.756 886.606 228.647 886.78 229.92 886.907 230.843 886.47 231.753 885.672 232.232 882.643 234.05 878.207 235.094 873.503 235.094 868.8 235.094 864.365 234.05 861.335 232.231 860.234 231.568 859.877 230.139 860.538 229.037ZM853.278 237.61C853.675 237.333 854.085 237.082 854.491 236.823L857.362 239.284 855.491 241.467 852.219 238.662C852.525 238.267 852.881 237.913 853.278 237.61ZM888.569 257.096 887.874 251.535C887.819 251.142 887.457 250.867 887.063 250.921 886.677 250.975 886.404 251.326 886.447 251.713L887.143 257.28C882.614 257.826 878.057 258.098 873.495 258.094 868.939 258.098 864.387 257.827 859.864 257.282L860.56 251.714C860.615 251.321 860.342 250.957 859.949 250.901 859.556 250.846 859.192 251.119 859.136 251.512 859.135 251.52 859.134 251.528 859.133 251.535L858.438 257.098C855.54 256.722 852.666 256.184 849.829 255.484L850.938 241.597C851.031 241.01 851.205 240.439 851.455 239.901L855.101 243.026C855.232 243.138 855.398 243.199 855.569 243.199 855.587 243.199 855.606 243.199 855.624 243.197 855.814 243.182 855.991 243.093 856.115 242.948L858.921 239.674C859.179 239.373 859.145 238.919 858.843 238.66L855.777 236.032C857.396 235.09 859.086 234.274 860.83 233.591 864.067 235.458 868.66 236.531 873.503 236.531 878.382 236.531 883.009 235.444 886.249 233.551 888.01 234.196 889.709 234.999 891.324 235.951L888.164 238.66C887.862 238.918 887.827 239.372 888.086 239.674L890.892 242.948C891.016 243.093 891.192 243.182 891.382 243.197 891.401 243.198 891.419 243.199 891.438 243.199 891.609 243.199 891.775 243.137 891.905 243.026L895.545 239.906C895.792 240.426 895.97 240.975 896.074 241.541L897.176 255.483C894.34 256.182 891.466 256.721 888.569 257.096Z"/><path d="M879.253 241.562 867.753 241.562C866.563 241.563 865.599 242.528 865.597 243.718L865.597 249.468C865.599 250.658 866.563 251.623 867.753 251.624L879.253 251.624C880.443 251.623 881.408 250.658 881.409 249.468L881.409 243.718C881.408 242.528 880.443 241.563 879.253 241.562ZM879.972 249.468C879.971 249.865 879.65 250.186 879.253 250.187L867.753 250.187C867.357 250.186 867.035 249.865 867.035 249.468L867.035 243.718C867.035 243.321 867.357 243 867.753 242.999L879.253 242.999C879.65 243 879.971 243.321 879.972 243.718Z"/><path d="M851.802 206.474C851.963 206.67 852.133 206.858 852.314 207.036 852.133 207.214 851.963 207.402 851.802 207.598 851.642 207.402 851.472 207.214 851.291 207.036 851.472 206.858 851.642 206.67 851.802 206.474ZM851.802 203.468C851.358 205.035 850.26 206.335 848.789 207.036 850.26 207.737 851.358 209.037 851.803 210.604 852.248 209.037 853.346 207.737 854.816 207.036 853.345 206.335 852.247 205.035 851.802 203.468Z"/><path d="M844.173 225.88C844.333 226.076 844.504 226.264 844.684 226.442 844.504 226.62 844.333 226.808 844.173 227.005 844.013 226.808 843.842 226.62 843.662 226.442 843.842 226.264 844.013 226.076 844.173 225.88ZM844.173 222.874C843.728 224.441 842.63 225.741 841.16 226.442 842.63 227.143 843.728 228.443 844.173 230.01 844.618 228.443 845.716 227.143 847.187 226.442 845.716 225.741 844.618 224.441 844.173 222.874Z"/><path d="M899.24 222.312C899.4 222.508 899.571 222.696 899.751 222.874 899.571 223.052 899.4 223.24 899.24 223.436 899.08 223.24 898.909 223.052 898.729 222.874 898.909 222.696 899.08 222.508 899.24 222.312ZM899.24 219.306C898.795 220.873 897.698 222.173 896.227 222.874 897.698 223.575 898.795 224.875 899.24 226.442 899.685 224.875 900.783 223.575 902.254 222.874 900.783 222.173 899.685 220.873 899.24 219.306Z"/></g></svg>