<svg width="59" height="59" xmlns="http://www.w3.org/2000/svg" xmlns:xlink="http://www.w3.org/1999/xlink" xml:space="preserve" overflow="hidden"><defs><clipPath id="clip0"><rect x="509" y="54" width="59" height="59"/></clipPath></defs><g clip-path="url(#clip0)" transform="translate(-509 -54)"><path d="M531.74 60.1458C532.758 60.1458 533.583 59.3204 533.583 58.3021 533.583 57.2838 532.758 56.4583 531.74 56.4583 530.721 56.4583 529.896 57.2838 529.896 58.3021 529.896 59.3204 530.721 60.1458 531.74 60.1458ZM531.74 57.6875C532.079 57.6875 532.354 57.9627 532.354 58.3021 532.354 58.6415 532.079 58.9167 531.74 58.9167 531.4 58.9167 531.125 58.6415 531.125 58.3021 531.125 57.9627 531.4 57.6875 531.74 57.6875Z" fill="#FFFFFF"/><path d="M543.417 63.8333C544.774 63.8333 545.875 62.7327 545.875 61.375 545.875 60.0173 544.774 58.9167 543.417 58.9167 542.059 58.9167 540.958 60.0173 540.958 61.375 540.958 62.7327 542.059 63.8333 543.417 63.8333ZM543.417 60.1458C544.096 60.1458 544.646 60.6961 544.646 61.375 544.646 62.0539 544.096 62.6042 543.417 62.6042 542.738 62.6042 542.188 62.0539 542.188 61.375 542.188 60.6961 542.738 60.1458 543.417 60.1458Z" fill="#FFFFFF"/><path d="M533.583 71.2083C535.62 71.2083 537.271 69.5574 537.271 67.5208 537.271 65.4843 535.62 63.8333 533.583 63.8333 531.547 63.8333 529.896 65.4843 529.896 67.5208 529.898 69.5564 531.548 71.2059 533.583 71.2083ZM533.583 65.0625C534.941 65.0625 536.042 66.1632 536.042 67.5208 536.042 68.8785 534.941 69.9792 533.583 69.9792 532.226 69.9792 531.125 68.8785 531.125 67.5208 531.125 66.1632 532.226 65.0625 533.583 65.0625Z" fill="#FFFFFF"/><path d="M542.188 71.2083C543.206 71.2083 544.031 70.3829 544.031 69.3646 544.031 68.3463 543.206 67.5208 542.188 67.5208 541.169 67.5208 540.344 68.3463 540.344 69.3646 540.344 70.3829 541.169 71.2083 542.188 71.2083ZM542.188 68.75C542.527 68.75 542.802 69.0251 542.802 69.3646 542.802 69.704 542.527 69.9792 542.188 69.9792 541.848 69.9792 541.573 69.704 541.573 69.3646 541.573 69.0251 541.848 68.75 542.188 68.75Z" fill="#FFFFFF"/><path d="M555.047 74.0459C554.952 73.8163 554.728 73.6666 554.479 73.6667L522.521 73.6667C522.181 73.6667 521.906 73.9419 521.906 74.2814 521.906 74.4443 521.971 74.6005 522.086 74.7158L523.464 76.0943C524.042 76.6692 524.367 77.4515 524.365 78.2668L524.365 107.469C524.367 109.165 525.741 110.54 527.438 110.542L549.562 110.542C551.259 110.54 552.633 109.165 552.635 107.469L552.635 78.2668C552.633 77.4515 552.958 76.6692 553.536 76.0943L554.914 74.7158C555.09 74.54 555.142 74.2756 555.047 74.0459ZM549.562 109.312 527.438 109.312C526.419 109.312 525.594 108.487 525.594 107.469L525.594 81.6507C529.452 81.6716 533.295 81.1563 537.012 80.1198 538.89 79.5454 540.839 79.2352 542.802 79.1979 545.329 79.1734 547.837 79.6351 550.19 80.558 550.588 80.7111 550.994 80.8428 551.406 80.9526L551.406 107.469C551.406 108.487 550.581 109.312 549.562 109.312ZM552.666 75.2259C551.859 76.0325 551.406 77.1263 551.406 78.2668L551.406 79.6804C551.176 79.6072 550.909 79.5114 550.607 79.4026 548.12 78.4348 545.471 77.9482 542.802 77.9688 540.734 78.0024 538.681 78.3258 536.702 78.9293 533.088 79.9451 529.348 80.4476 525.594 80.4222L525.594 78.2668C525.594 77.1268 525.141 76.0333 524.335 75.2271L524.015 74.9063C524.009 74.9007 524.011 74.8958 524.019 74.8958L552.981 74.8958C552.989 74.8958 552.991 74.9007 552.985 74.9063Z" fill="#FFFFFF"/><path d="M539.729 84.1146 547.104 84.1146 547.104 85.3438 539.729 85.3438Z" fill="#FFFFFF"/><path d="M539.729 89.0312 547.104 89.0312 547.104 90.2604 539.729 90.2604Z" fill="#FFFFFF"/><path d="M539.729 93.9479 547.104 93.9479 547.104 95.1771 539.729 95.1771Z" fill="#FFFFFF"/><path d="M539.729 98.8646 547.104 98.8646 547.104 100.094 539.729 100.094Z" fill="#FFFFFF"/><path d="M539.729 103.781 547.104 103.781 547.104 105.01 539.729 105.01Z" fill="#FFFFFF"/></g></svg>